# xmcd
#
# Track frame offsets: 
#        150
#        14296
#        24896
#        42153
#        56330
#        80291
#        91547
#        108318
#        122196
#        135558
#        149287
#        161170
#        174534
#        196509
#        205900
#        218528
#
# Disc length: 3124 seconds
#
# Revision: 0
# Processed by: cddbd v1.5.2PL0 Copyright (c) Steve Scherf et al.
# Submitted via: ExactAudioCopy v1.0b4
#
DISCID=c40c3210
DTITLE=Eric Clapton - The Breeze
DYEAR=2014
DGENRE=Blues
TTITLE0=Call Me The Breeze
TTITLE1=Rock and Roll Records
TTITLE2=Someday
TTITLE3=Lies
TTITLE4=Sensitive Kind
TTITLE5=Cajun Moon
TTITLE6=Magnolia
TTITLE7=I Got The Same Old Blues
TTITLE8=Songbird
TTITLE9=Since You Said Goodbye
TTITLE10=I'll Be There
TTITLE11=The Old Man and Me
TTITLE12=Train To Nowhere
TTITLE13=Starbound
TTITLE14=Dont Wait
TTITLE15=Crying Eyes
EXTD=
EXTT0=
EXTT1=
EXTT2=
EXTT3=
EXTT4=
EXTT5=
EXTT6=
EXTT7=
EXTT8=
EXTT9=
EXTT10=
EXTT11=
EXTT12=
EXTT13=
EXTT14=
EXTT15=
PLAYORDER=
